<?xml version="1.0" encoding="utf-8"?>
<!-- Generator: Adobe Illustrator 16.0.0, SVG Export Plug-In . SVG Version: 6.00 Build 0)  -->
<!DOCTYPE svg PUBLIC "-//W3C//DTD SVG 1.1//EN" "http://www.w3.org/Graphics/SVG/1.1/DTD/svg11.dtd">
<svg version="1.1" id="Capa_1" xmlns="http://www.w3.org/2000/svg" xmlns:xlink="http://www.w3.org/1999/xlink" x="0px" y="0px"
	 width="16px" height="16px" viewBox="0 0 16 16" enable-background="new 0 0 16 16" xml:space="preserve">
<path fill="#FFFFFF" d="M10.971,4.97c0.299-0.286,0.773-0.274,1.06,0.026c0.272,0.286,0.276,0.733,0.01,1.024l-3.99,4.99
	c-0.282,0.304-0.756,0.321-1.06,0.039c-0.007-0.006-0.014-0.012-0.02-0.02L4.324,8.384c-0.303-0.282-0.32-0.757-0.038-1.06
	c0.282-0.303,0.757-0.32,1.06-0.038c0.013,0.012,0.025,0.024,0.037,0.038l2.094,2.093l3.473-4.425
	C10.957,4.984,10.964,4.977,10.971,4.97L10.971,4.97z"/>
</svg>
