<?xml version="1.0" encoding="utf-8"?>
<!-- Generator: Adobe Illustrator 27.4.0, SVG Export Plug-In . SVG Version: 6.00 Build 0)  -->
<svg version="1.1" id="Layer_1" xmlns="http://www.w3.org/2000/svg" xmlns:xlink="http://www.w3.org/1999/xlink" x="0px" y="0px"
	 viewBox="0 0 732 416" style="enable-background:new 0 0 732 416;" xml:space="preserve">
<style type="text/css">
	.st0{fill:#FFFFFF;}
	.st1{fill:none;stroke:#FFFFFF;stroke-width:4.4553;stroke-miterlimit:10;}
	.st2{fill:none;}
</style>
<g>
	<path class="st0" d="M336.5,68.94c-20.87,0-40.73,4.3-58.74,12.06c-52.91,22.78-89.94,75.39-89.94,136.64
		c0,27.82,0.67,39.22,9.82,62.59c96.23-7.71,212.27-51.23,279.12-112.05C459.75,104.8,405.25,68.94,336.5,68.94z M381.86,195.49
		c-26.05,19.39-55.2,31.19-87.43,35.33c-21.85,2.82-45.13,2.14-69.82-2.05c10.52-27.66,23.65-49.39,39.27-65.46
		c25.69-26.48,58.14-37.72,96.74-35.02c21.46,1.5,44.84,7.31,70.04,17.19C415.81,165.67,399.55,182.33,381.86,195.49z"/>
	<g>
		<path class="st0" d="M176.58,233.56c-10.19,9.13-20.26,18.85-30.17,29.16c8.36-13.7,18.52-26.77,30.08-39.19
			C176.5,227.11,176.52,230.43,176.58,233.56z"/>
		<path class="st0" d="M146.41,416.07c218.04-58.93,458.76-172.61,498.26-267.73c7.43-17.9-0.76-38.67-18.65-46.16
			c-20-8.38-47.49-9.08-75.26-8.21c99.36,57.64-151.71,204.69-344.29,212.71c116.66-21.19,272.7-88.33,304.54-145.92
			c8.36-15.14,0.56-34.21-15.89-39.61c-9.42-3.09-20.18-5.17-32.02-6.19c-11.06-13.98-24.67-25.47-40.31-34.28
			C560.91,33.09,689.28,29,718,70.2C805.9,155.98,454.18,393.54,146.41,416.07z"/>
		<path class="st0" d="M582.61-0.07C507.05,20.2,440.9,42.38,383.63,65.27c-14.55-3.63-30.1-5.49-46.39-5.49
			c-1.11,0-2.22,0.01-3.32,0.03C410.48,31.41,495.22,9.7,582.61-0.07z"/>
		<path class="st0" d="M582.61,148.35C524.97,299.27,95.54,431.54,7.04,343.06c-33.5-55.92,60.77-155.49,214.37-233.98
			c-16.09,16.72-28.59,36.91-36.28,59.34c-80.59,56.45-109.54,106.16-95.12,129.92C170.32,362.74,477.64,287.8,582.61,148.35z"/>
	</g>
	<path class="st1" d="M266.56,56.74c4.02,9.61,7.96,16.5,11.2,24.26"/>
	<path class="st0" d="M267,57.8c-2.75,1.08-5.74,1.67-8.86,1.67c-13.4,0-24.26-10.86-24.26-24.26s10.86-24.26,24.26-24.26
		s24.26,10.86,24.26,24.26C282.4,45.48,276.02,54.26,267,57.8"/>
	<path class="st2" d="M294.44,230.82c-21.85,2.82-45.13,2.14-69.82-2.05c10.52-27.66,23.65-49.39,39.27-65.46
		c-2.73,11.81-1.99,24.53,2.9,36.6C272.34,213.66,282.32,224.28,294.44,230.82z"/>
	<path class="st2" d="M430.66,145.48c-14.85,20.19-31.11,36.85-48.8,50.01c4.17-13.11,3.97-27.7-1.58-41.44
		c-4.28-10.58-11.19-19.32-19.66-25.76C382.08,129.8,405.46,135.6,430.66,145.48z"/>
	<path class="st0" d="M380.28,154.05c-4.28-10.58-11.19-19.32-19.66-25.76c-38.6-2.7-71.04,8.53-96.74,35.02
		c-2.73,11.81-1.99,24.53,2.9,36.6c5.55,13.75,15.53,24.37,27.65,30.91c32.22-4.14,61.38-15.93,87.43-35.33
		C386.04,182.38,385.84,167.79,380.28,154.05z M334.76,204.77c-15.34,6.21-32.81-1.21-39.02-16.55
		c-6.19-15.34,1.21-32.82,16.57-39.02c15.34-6.21,32.8,1.23,39.01,16.57C357.51,181.11,350.1,198.56,334.76,204.77z"/>
	<path class="st2" d="M334.76,204.77c-15.34,6.21-32.81-1.21-39.02-16.55c-6.19-15.34,1.21-32.82,16.57-39.02
		c15.34-6.21,32.8,1.23,39.01,16.57C357.51,181.11,350.1,198.56,334.76,204.77z"/>
</g>
</svg>
