<?xml version="1.0" encoding="utf-8"?>
<!-- Generator: Adobe Illustrator 16.0.0, SVG Export Plug-In . SVG Version: 6.00 Build 0)  -->
<!DOCTYPE svg PUBLIC "-//W3C//DTD SVG 1.1//EN" "http://www.w3.org/Graphics/SVG/1.1/DTD/svg11.dtd">
<svg version="1.1" id="Capa_1" xmlns="http://www.w3.org/2000/svg" xmlns:xlink="http://www.w3.org/1999/xlink" x="0px" y="0px"
	 width="64px" height="64px" viewBox="0 0 64 64" enable-background="new 0 0 64 64" xml:space="preserve">
<g>
	<path fill="#FFFFFF" d="M57.132,13.97c0,1.613-1.462,2.922-3.267,2.922h-43.73c-1.804,0-3.267-1.309-3.267-2.922l0,0
		c0-1.614,1.463-2.923,3.267-2.923h43.73C55.67,11.047,57.132,12.355,57.132,13.97L57.132,13.97z"/>
	<path fill="#FFFFFF" d="M57.132,32c0,1.614-1.462,2.923-3.267,2.923h-43.73c-1.804,0-3.267-1.309-3.267-2.923l0,0
		c0-1.614,1.463-2.923,3.267-2.923h43.73C55.67,29.077,57.132,30.386,57.132,32L57.132,32z"/>
	<path fill="#FFFFFF" d="M57.132,50.03c0,1.614-1.462,2.923-3.267,2.923h-43.73c-1.804,0-3.267-1.309-3.267-2.923l0,0
		c0-1.613,1.463-2.922,3.267-2.922h43.73C55.67,47.108,57.132,48.417,57.132,50.03L57.132,50.03z"/>
</g>
</svg>
