<?xml version="1.0" encoding="UTF-8"?>
<svg id="Layer_1" data-name="Layer 1" xmlns="http://www.w3.org/2000/svg" viewBox="0 0 659.92 142.43">
  <defs>
    <style>
      .cls-1, .cls-2 {
        fill: none;
      }

      .cls-3 {
        fill: #fff;
      }

      .cls-2 {
        stroke: #fff;
        stroke-miterlimit: 10;
        stroke-width: 1.45px;
      }
    </style>
  </defs>
  <g>
    <path class="cls-3" d="m26.63,32.31c0-7.43,8.87-10.2,14.52-10.2,5.1,0,11.86,2.22,11.86,7.65,0,1.22-.33,2.66-1.33,4.32l11.97,5.76c3.21-4.66,4.21-7.65,4.21-11.42,0-13.97-13.63-19.73-27.05-19.73-15.3,0-29.15,7.54-29.15,23.94,0,30.48,47.55,24.16,47.55,46.22,0,7.09-4.88,15.19-22.5,15.19-14.63,0-28.49-5.54-32.92-7.87v14.74c6.65,3.1,18.73,6.87,32.7,6.87,26.27,0,38.24-13.41,38.24-30.15,0-33.7-48.1-28.15-48.1-45.33Z"/>
    <path class="cls-3" d="m73.07,27.43v14.41h22.5v64.29h16.07V41.84h39.35l-24.16,64.29h16.4l7.98-21.06h31.7v21.06h16.07V27.43h-125.91Zm109.84,43.23h-26.38l10.86-28.82h15.52v28.82Z"/>
    <path class="cls-3" d="m294.86,91.72V27.43h-16.07v78.7h51.98l4.77-14.41h-40.68Z"/>
    <path class="cls-3" d="m379.43,27.43c-.44,15.19-4.43,28.82-14.3,43.23l-22.61-43.23h-16.29l29.26,55.64c-6.98,7.98-15.3,16.18-22.17,23.05h19.62c22.83-18.62,41.79-48.66,42.01-78.7h-15.52Z"/>
    <path class="cls-3" d="m465.11,106.13h-17.18l-17.96-27.49-31.04,47.44h-121c-4.02-1.09-7.71-2.71-11.23-4.99-3.63-2.33-7.31-5.44-11.3-9.42-5.87-5.87-12.41-13.64-20.4-23.61l-13.08-16.4,22.39-13.86c7.76-4.77,9.09-7.32,9.09-9.86,0-3.77-2.99-6.1-11.75-6.1h-22.17v64.29h-16.07V27.43h42.67c15.29,0,23.6,8.87,23.6,18.84,0,7.54-4.65,15.52-13.63,21.06l-13.19,8.09,5.87,7.32c11.75,14.63,18.84,22.5,26.04,26.93,1.24.76,2.49,1.42,3.79,2h112.82l29.93-46.33-24.72-37.91h17.73l15.74,24.27,15.63-24.27h17.73l-24.72,37.8,26.38,40.9Z"/>
  </g>
  <g>
    <path class="cls-3" d="m527.46,26.17c-6.79,0-13.25,1.4-19.11,3.92-17.21,7.41-29.25,24.52-29.25,44.44,0,9.05.22,12.76,3.19,20.36,31.3-2.51,69.04-16.66,90.79-36.44-5.53-20.62-23.26-32.28-45.62-32.28Zm-.57,44.17c-4.99,2.02-10.67-.39-12.69-5.38-2.01-4.99.4-10.67,5.39-12.69s10.67.4,12.69,5.39c2.01,4.99-.39,10.67-5.39,12.68Zm-35.82,7.81c3.42-9,7.69-16.06,12.77-21.29-.89,3.84-.64,7.98.95,11.91,1.8,4.47,5.05,7.92,8.99,10.05-7.11.92-14.68.69-22.71-.67Zm51.15-10.82c1.35-4.27,1.29-9.01-.52-13.48-1.39-3.44-3.64-6.29-6.39-8.38,6.98.49,14.58,2.38,22.78,5.59-4.83,6.57-10.12,11.99-15.87,16.27Z"/>
    <g>
      <path class="cls-3" d="m475.45,79.7c-3.31,2.97-6.59,6.13-9.81,9.48,2.72-4.46,6.02-8.71,9.78-12.75,0,1.16,0,2.25.03,3.26Z"/>
      <path class="cls-3" d="m465.63,139.07c70.92-19.17,149.22-56.14,162.06-87.08,2.42-5.82-.25-12.58-6.07-15.01-6.5-2.73-15.45-2.95-24.48-2.67,32.32,18.75-49.35,66.58-111.98,69.19,37.94-6.89,88.7-28.73,99.05-47.46,2.72-4.93.18-11.13-5.17-12.88-3.06-1-6.56-1.68-10.41-2.01-3.6-4.55-8.02-8.28-13.11-11.15,44.92-15.48,86.68-16.81,96.02-3.41,28.59,27.9-85.81,105.17-185.92,112.5Z"/>
      <path class="cls-3" d="m607.51,3.72c-24.58,6.59-46.09,13.81-64.72,21.25-4.73-1.18-9.79-1.79-15.09-1.79-.36,0-.72,0-1.08.01,24.9-9.24,52.46-16.3,80.89-19.48Z"/>
      <path class="cls-3" d="m452.77,81.46l-8.3-12.86c11.96-10.03,27.5-20.15,45.56-29.38-5.24,5.44-9.3,12.01-11.8,19.3-11.82,8.29-20.23,16.12-25.46,22.94Z"/>
      <path class="cls-3" d="m607.51,52c-18.75,49.08-158.42,92.11-187.21,63.32-2.51-4.19-2.82-9.14-1.19-14.59l10.86-16.6,16.34,25.01,23.6-1.11c39.92,3.41,110.11-19.51,137.6-56.03Z"/>
    </g>
    <path class="cls-2" d="m504.71,22.19c1.31,3.12,2.59,5.37,3.64,7.89"/>
    <path class="cls-3" d="m504.86,22.54c-.89.35-1.87.54-2.88.54-4.36,0-7.89-3.53-7.89-7.89s3.53-7.89,7.89-7.89,7.89,3.53,7.89,7.89c0,3.34-2.08,6.2-5.01,7.35h0Z"/>
    <path class="cls-1" d="m513.78,78.82c-7.11.92-14.68.69-22.71-.67,3.42-9,7.69-16.06,12.77-21.29-.89,3.84-.64,7.98.95,11.91,1.8,4.47,5.05,7.92,8.99,10.05Z"/>
    <path class="cls-1" d="m558.09,51.06c-4.83,6.57-10.12,11.99-15.87,16.27,1.35-4.27,1.29-9.01-.52-13.48-1.39-3.44-3.64-6.29-6.39-8.38,6.98.49,14.58,2.38,22.78,5.59Z"/>
    <path class="cls-1" d="m526.89,70.34c-4.99,2.02-10.67-.39-12.69-5.38-2.01-4.99.4-10.67,5.39-12.69s10.67.4,12.69,5.39c2.01,4.99-.39,10.67-5.39,12.68Z"/>
  </g>
</svg>